# xmcd
#
# Track frame offsets: 
#        150
#        22886
#        33849
#        54729
#        80464
#        96151
#        112156
#        133029
#        156149
#        170646
#        189216
#
# Disc length: 2900 seconds
#
# Revision: 0
# Processed by: cddbd v1.5.2PL0 Copyright (c) Steve Scherf et al.
# Submitted via: ExactAudioCopy v1.3
#
DISCID=880b520b
DTITLE=Buddy Guy - Feels Like Rain
DYEAR=1993
DGENRE=Blues Rock, Chicago Blues
TTITLE0=She's A Superstar
TTITLE1=I Go Crazy
TTITLE2=Feels Like Rain
TTITLE3=She's Nineteen Years Old
TTITLE4=Some Kind Of Wonderful
TTITLE5=Sufferin' Mind
TTITLE6=Change In The Weather
TTITLE7=I Could Cry
TTITLE8=Mary Ann
TTITLE9=Trouble Man
TTITLE10=Country Man
EXTD=
EXTT0=
EXTT1=
EXTT2=
EXTT3=
EXTT4=
EXTT5=
EXTT6=
EXTT7=
EXTT8=
EXTT9=
EXTT10=
PLAYORDER=
